# xmcd CD database file
#
# Track frame offsets:
#	150
#	14405
#	38688
#	54165
#	83994
#	115442
#	134782
#	163734
#	178921
#	200608
#	214948
#	228301
#
# Disc length: 3321 seconds
#
# Revision: 0
# Processed by: cddbd v1.5.2PL0 Copyright (c) Steve Scherf et al.
# Submitted via: CDex 1.70beta2
#
DISCID=ad0cf70c
DTITLE=The Gadjo Gypsies - Gypsy In The Soul
DYEAR=1900
DGENRE=Jazz
TTITLE0=It Had To Be You
TTITLE1=Swing Gitane
TTITLE2=Swing 42'
TTITLE3=Stardust
TTITLE4=Bossa Dorado
TTITLE5=J'Attendrai
TTITLE6=Blue Drag
TTITLE7=Sweet Sue
TTITLE8=No Moon At All
TTITLE9=I Can't Give You Anything That Love
TTITLE10=You'd Be So Nice To Come Home To
TTITLE11=Steve and Bettie
EXTD=
EXTT0=
EXTT1=
EXTT2=
EXTT3=
EXTT4=
EXTT5=
EXTT6=
EXTT7=
EXTT8=
EXTT9=
EXTT10=
EXTT11=
PLAYORDER=
